<?xml version="1.0" standalone="no"?><!DOCTYPE svg PUBLIC "-//W3C//DTD SVG 1.1//EN" "http://www.w3.org/Graphics/SVG/1.1/DTD/svg11.dtd"><svg class="icon" width="200px" height="200.00px" viewBox="0 0 1024 1024" version="1.1" xmlns="http://www.w3.org/2000/svg"><path d="M512 0C229.218 0 0 229.218 0 512s229.218 512 512 512 512-229.218 512-512S794.782 0 512 0zM512 944c-238.594 0-432-193.406-432-432S273.406 80 512 80s432 193.406 432 432S750.594 944 512 944z" fill="#ffffff" /><path d="M512 448c-53.016 0-96 43-96 96 0 53.032 42.984 96 96 96 53.032 0 96-42.968 96-96C608 491 565.032 448 512 448z" fill="#ffffff" /><path d="M736 384l-143.844 0c-7.282 0-14.624-29.094-16.156-32.156-3.188-6.406-14.312-31.844-32-31.844l-64 0c-17.672 0-28.796 25.438-32 31.844-1.532 3.062-8.876 32.156-16.156 32.156L288 384c-17.672 0-32 14.468-32 32.124l0 256.032c0 17.688 14.328 31.844 32 31.844l448 0c17.688 0 32-14.156 32-31.844L768 416.124C768 398.468 753.688 384 736 384zM512 672c-70.672 0-128-57.282-128-128 0-70.688 57.328-128 128-128 70.718 0 128 57.312 128 128C640 614.718 582.718 672 512 672z" fill="#ffffff" /></svg>